<?xml version="1.0" encoding="UTF-8" standalone="no"?>
<svg width="54px" height="41px" viewBox="0 0 54 41" version="1.1" xmlns="http://www.w3.org/2000/svg" xmlns:xlink="http://www.w3.org/1999/xlink">
    <!-- Generator: Sketch 3.8.2 (29753) - http://www.bohemiancoding.com/sketch -->
    <title>Slice 1</title>
    <desc>Created with Sketch.</desc>
    <defs>
        <rect id="path-1" x="2.92009551" y="3.32929423" width="36.8133156" height="36.8133156"></rect>
        <mask id="mask-2" maskContentUnits="userSpaceOnUse" maskUnits="objectBoundingBox" x="0" y="0" width="36.8133156" height="36.8133156" fill="white">
            <use xlink:href="#path-1"></use>
        </mask>
        <path d="M7.29027421,3.52868774 L0.40057925,3.52868774 C0.175816783,3.52868774 0,3.70794307 0,3.92906573 L0,21.4804517 C0,21.6991921 0.179345439,21.8808297 0.40057925,21.8808297 L29.5377991,21.8808297 C29.7625616,21.8808297 29.9383784,21.7015744 29.9383784,21.4804517 L29.9383784,3.92906573 C29.9383784,3.71032534 29.7590329,3.52868774 29.5377991,3.52868774 L22.0648195,3.52868774 L19.982722,0.1701758 C19.922503,0.0730400537 19.7890771,0 19.6803448,0 L9.75741019,0 C9.64972125,0 9.51449562,0.0715562162 9.45770578,0.159825282 L7.29027421,3.52868774 Z" id="path-3"></path>
        <mask id="mask-4" maskContentUnits="userSpaceOnUse" maskUnits="objectBoundingBox" x="0" y="0" width="29.9383784" height="21.8808297" fill="white">
            <use xlink:href="#path-3"></use>
        </mask>
    </defs>
    <g id="Page-1" stroke="none" stroke-width="1" fill="none" fill-rule="evenodd">
        <g id="Group-7" transform="translate(-3.000000, -3.000000)">
            <g id="Group-8-Copy-4" transform="translate(23.860512, 23.821606) rotate(-355.000000) translate(-23.860512, -23.821606) translate(2.360512, 1.821606)" stroke="#B2B2B2">
                <use id="Rectangle-89" mask="url(#mask-2)" stroke-width="4" fill="#FFFFFF" transform="translate(21.326753, 21.735952) rotate(-10.000000) translate(-21.326753, -21.735952) " xlink:href="#path-1"></use>
                <path d="M32.8567102,21.8121344 L36.8448593,21.8083077 L23.2729704,8.23641882 L9.67501175,21.8343775 L13.6631608,21.8305508 L13.6631608,34.6416209 L32.8567102,34.6416209 L32.8567102,21.8121344 Z M20.0610106,25.0264122 L26.4588604,25.0264122 L26.4588604,34.6416209 L20.0610106,34.6416209 L20.0610106,25.0264122 Z" id="Combined-Shape" stroke-width="2" transform="translate(23.259936, 21.439020) rotate(-10.000000) translate(-23.259936, -21.439020) "></path>
            </g>
            <g id="CAMERA-Copy-4" transform="translate(26.291316, 14.791316)">
                <g id="camera">
                    <use id="Combined-Shape" stroke="#B2B2B2" mask="url(#mask-4)" stroke-width="1.6" fill="#B2B2B2" xlink:href="#path-3"></use>
                    <path d="M14.9486453,17.2600094 C17.7546435,17.2600094 20.0293545,15.017717 20.0293545,12.2517092 C20.0293545,9.48570145 17.7546435,7.24340909 14.9486453,7.24340909 C12.1426471,7.24340909 9.86793612,9.48570145 9.86793612,12.2517092 C9.86793612,15.017717 12.1426471,17.2600094 14.9486453,17.2600094 L14.9486453,17.2600094 Z" id="Combined-Shape" stroke="#FFFFFF" stroke-width="2.4"></path>
                    <ellipse id="Oval-49" fill="#FFFFFF" cx="25.7966064" cy="7.99839935" rx="1.13716212" ry="1.12095556"></ellipse>
                </g>
            </g>
        </g>
    </g>
</svg>